<mxfile host="app.diagrams.net" modified="2023-10-03T14:21:29.356Z" agent="Mozilla/5.0 (X11; Linux x86_64; rv:109.0) Gecko/20100101 Firefox/118.0" version="22.0.2" etag="gaoCLLq6uFZn1OS6WR90" type="github">
  <diagram name="PÃ¡gina-1" id="i9LnB33c1XH3SKXOVp2t">
    <mxGraphModel>
      <root>
        <mxCell id="0" />
        <mxCell id="1" parent="0" />
      </root>
    </mxGraphModel>
  </diagram>
</mxfile>
